<?xml version="1.0" encoding="UTF-8"?>
<svg width="30px" height="30px" viewBox="0 0 30 30" version="1.1" xmlns="http://www.w3.org/2000/svg" xmlns:xlink="http://www.w3.org/1999/xlink">
    <!-- Generator: Sketch 52.2 (67145) - http://www.bohemiancoding.com/sketch -->
    <title>Rectangle Copy 14</title>
    <desc>Created with Sketch.</desc>
    <g id="Page-1" stroke="none" stroke-width="1" fill="none" fill-rule="evenodd">
        <g id="Group-30">
            <rect id="Rectangle-Copy-14" x="0" y="0" width="30" height="30"></rect>
            <g id="thumbs-up" transform="translate(1.000000, 0.000000)" fill="#FFFFFF" fill-rule="nonzero">
                <path d="M26.612295,16.4960861 C27.196623,15.6208118 27.4884112,14.6573204 27.4884112,13.6049286 C27.4884112,12.3868503 27.03582,11.3288673 26.1298861,10.4293021 C25.2235137,9.53066888 24.1503246,9.08144543 22.9104442,9.08144543 L19.7626025,9.08144543 C20.3347779,7.91089252 20.6213667,6.7755643 20.6213667,5.67601988 C20.6213667,4.2924415 20.4121412,3.19283496 19.9951936,2.37688963 C19.5778075,1.5606958 18.9696128,0.960757921 18.170672,0.576268379 C17.3715433,0.19196521 16.471623,0 15.4700968,0 C14.8617141,0 14.3253702,0.21874094 13.8603759,0.656409194 C13.3477733,1.15297163 12.9781207,1.7916753 12.7516686,2.57214744 C12.5250911,3.35237109 12.3431777,4.10041416 12.2061788,4.81584179 C12.06918,5.53120729 11.8573235,6.03671568 11.5712984,6.33230483 C10.9869077,6.95901843 10.3490831,7.71600745 9.65751139,8.6027749 C8.45327449,10.151667 7.636418,11.0681922 7.20738041,11.3521019 L2.30699317,11.3521019 C1.67505695,11.3521019 1.13545558,11.5741354 0.688314351,12.0172085 C0.241361048,12.4607165 0.0177277904,12.9957962 0.0177277904,13.622572 L0.0177277904,24.9741768 C0.0177277904,25.6009526 0.241110478,26.1358459 0.688314351,26.5793539 C1.13570615,27.0228619 1.67505695,27.2447712 2.30699317,27.2447712 L7.45751139,27.2447712 C7.71985763,27.2447712 8.54241458,27.4812176 9.92555809,27.9542348 C11.3922039,28.4627873 12.6828872,28.8499482 13.7976082,29.1160903 C14.9124544,29.3822323 16.0422096,29.5153655 17.1869362,29.5153655 L18.8497779,29.5153655 L19.493992,29.5153655 C21.1750626,29.5153655 22.5282631,29.0391178 23.5537813,28.0871195 C24.5789237,27.1351211 25.0858884,25.837399 25.0741116,24.1937668 C25.7894875,23.2832056 26.1471128,22.2308138 26.1471128,21.0366536 C26.1471128,20.7766618 26.1295103,20.5224477 26.0935535,20.2738869 C26.5464579,19.4819217 26.7734738,18.6305032 26.7734738,17.719942 C26.7732859,17.2942017 26.7197267,16.8860427 26.612295,16.4960861 Z M4.25648633,24.637399 C4.02997153,24.8619176 3.7617369,24.9746117 3.45171982,24.9746117 C3.14164009,24.9746117 2.87334282,24.8619797 2.64676538,24.637399 C2.42031321,24.4129426 2.30699317,24.1468006 2.30699317,23.8390971 C2.30699317,23.5317043 2.42006264,23.2657486 2.64676538,23.0409816 C2.87359339,22.8162767 3.14164009,22.7039553 3.45171982,22.7039553 C3.7617369,22.7039553 4.02997153,22.8162767 4.25648633,23.0409816 C4.48306378,23.2656865 4.59638383,23.5316422 4.59638383,23.8390971 C4.59638383,24.1468006 4.48306378,24.4129426 4.25648633,24.637399 Z M24.8154613,15.0601988 C24.5590661,15.6040381 24.2400285,15.8819217 23.8585364,15.8936012 C24.0373178,16.0946987 24.1864692,16.3758128 24.3057403,16.7361358 C24.4248861,17.0968938 24.4840831,17.424912 24.4840831,17.7206875 C24.4840831,18.536198 24.1685535,19.2399462 23.5365547,19.8310002 C23.751418,20.2092152 23.8585991,20.6173742 23.8585991,21.0546697 C23.8585991,21.4922137 23.7544248,21.9267757 23.5456378,22.3582936 C23.3372267,22.7894388 23.0538326,23.0999379 22.6962699,23.2890454 C22.7558428,23.6437151 22.78541,23.9749016 22.78541,24.2822945 C22.78541,26.2569269 21.6406834,27.2442742 19.3511674,27.2442742 L17.1877506,27.2442742 C15.6254499,27.2442742 13.5868793,26.8129426 11.0708485,25.9495341 C11.0111503,25.9259267 10.838508,25.8636157 10.5521697,25.7632843 C10.2658314,25.662953 10.0542882,25.5889625 9.91710137,25.5418099 C9.77991458,25.4941603 9.57144077,25.4261959 9.29105353,25.3377304 C9.01072893,25.24883 8.78446469,25.1837233 8.61144647,25.1425347 C8.43867882,25.1012839 8.24179385,25.0628287 8.021418,25.0272934 C7.80091686,24.9918203 7.61305239,24.9741768 7.45807517,24.9741768 L6.88577449,24.9741768 L6.88577449,13.6230068 L7.45807517,13.6230068 C7.64882118,13.6230068 7.86042711,13.5696417 8.09295558,13.4634707 C8.32542141,13.356989 8.5640262,13.1973908 8.80839408,12.9844895 C9.05288724,12.7715883 9.28222096,12.5617312 9.496959,12.3546697 C9.7116344,12.1477946 9.95005125,11.8876786 10.2124601,11.5744461 C10.4747437,11.260965 10.6803986,11.009795 10.8295501,10.8205633 C10.9785137,10.6313937 11.1662528,10.388859 11.3928303,10.0932698 C11.6192825,9.7977428 11.7565319,9.62031476 11.8042027,9.56110996 C12.4598804,8.75715469 12.9189237,8.2191551 13.1812073,7.94704908 C13.6700683,7.43874508 14.0247494,6.79134396 14.2453132,6.00496997 C14.4661276,5.21847173 14.6479157,4.47645475 14.7904897,3.77891903 C14.9334396,3.08132118 15.1602677,2.57860841 15.4706606,2.27115345 C16.6150114,2.27115345 17.3783087,2.54891282 17.759738,3.10474218 C18.1411048,3.6604473 18.3319134,4.51782978 18.3319134,5.67664113 C18.3319134,6.37423897 18.0455125,7.32313108 17.4730866,8.52325533 C16.9009112,9.72350383 16.6150114,10.6665562 16.6150114,11.3523504 L22.9102563,11.3523504 C23.5070501,11.3523504 24.0373804,11.5798509 24.5021868,12.0353489 C24.967369,12.4905363 25.2002107,13.01959 25.2002107,13.6228205 C25.2000228,14.0366328 25.0717938,14.515614 24.8154613,15.0601988 Z" id="Shape"></path>
            </g>
        </g>
    </g>
</svg>