<?xml version="1.0" encoding="UTF-8"?>
<svg width="30px" height="30px" viewBox="0 0 30 30" version="1.1" xmlns="http://www.w3.org/2000/svg" xmlns:xlink="http://www.w3.org/1999/xlink">
    <!-- Generator: Sketch 52.2 (67145) - http://www.bohemiancoding.com/sketch -->
    <title>Rectangle</title>
    <desc>Created with Sketch.</desc>
    <g id="Page-1" stroke="none" stroke-width="1" fill="none" fill-rule="evenodd">
        <g id="Group-32">
            <rect id="Rectangle" x="0" y="0" width="30" height="30"></rect>
            <g id="comments" transform="translate(0.000000, 3.000000)" fill="#FFFFFF">
                <path d="M17.6908008,16.0313672 C19.5031055,15.2674219 20.9333789,14.2275586 21.9815039,12.9113672 C23.0298047,11.5954688 23.5539844,10.1624414 23.5539844,8.61222656 C23.5539844,7.06195312 23.0298047,5.62898437 21.9815039,4.31285156 C20.9333789,2.99689453 19.5031055,1.95691406 17.6908008,1.19279297 C15.8784961,0.428789062 13.9073437,0.0469335937 11.7770508,0.0469335937 C9.64693359,0.0469335937 7.67578125,0.429023437 5.86335937,1.19302734 C4.05117187,1.95703125 2.62083984,2.99701172 1.57265625,4.31302734 C0.524238281,5.62898438 0,7.06189453 0,8.61222656 C0,9.93925781 0.396328125,11.1888867 1.18804687,12.359707 C1.97976562,13.5307031 3.06720703,14.5178906 4.45001953,15.3207422 C4.33857422,15.5886328 4.22425781,15.8336719 4.10712891,16.0570313 C3.98994141,16.2800391 3.85066406,16.4945508 3.68882812,16.7010352 C3.52710937,16.9075781 3.40177734,17.0691797 3.31248047,17.1858984 C3.22324219,17.3029688 3.07828125,17.4676758 2.87748047,17.679375 C2.67662109,17.8913086 2.54830078,18.0307031 2.49269531,18.0974414 C2.49269531,18.08625 2.47025391,18.1115039 2.42572266,18.1728516 C2.38101562,18.2341992 2.3559375,18.2619141 2.3503125,18.2566992 C2.34480469,18.2506641 2.32242187,18.2785547 2.28345703,18.3399023 C2.24443359,18.4013086 2.22486328,18.4319531 2.22486328,18.4319531 L2.18296875,18.515332 C2.16632812,18.5486133 2.15507812,18.5819531 2.14957031,18.6156445 C2.14394531,18.6488672 2.14113281,18.6853711 2.14113281,18.7242773 C2.14113281,18.7631836 2.14664062,18.7992773 2.15789062,18.8329102 C2.18033203,18.9776953 2.24443359,19.0945898 2.3503125,19.1842383 C2.45630859,19.2733008 2.57044922,19.3177734 2.69332031,19.3177734 L2.74353516,19.3177734 C3.30105469,19.2397266 3.78070313,19.1505469 4.18212891,19.0500586 C5.89962891,18.6039258 7.44996094,17.8900781 8.83283203,16.90875 C9.83642578,17.0872266 10.8179883,17.1764062 11.7770508,17.1764062 C13.907168,17.1771094 15.8785547,16.7953711 17.6908008,16.0313672 Z M8.33109375,14.6347852 L7.59492187,15.1531055 C7.28261719,15.3648633 6.93708984,15.5826563 6.5578125,15.8058398 L7.14345703,14.4004102 L5.52076172,13.4636133 C4.44990234,12.8392383 3.61916016,12.103125 3.02806641,11.2555078 C2.43691406,10.4079492 2.14148437,9.526875 2.14148437,8.61228516 C2.14148437,7.47457031 2.57941406,6.40951172 3.45480469,5.41693359 C4.33007812,4.42435547 5.50951172,3.63814453 6.9928125,3.05800781 C8.47599609,2.47822266 10.0708594,2.18806641 11.777168,2.18806641 C13.4834766,2.18806641 15.078457,2.47822266 16.561582,3.05800781 C18.0447656,3.63808594 19.2241992,4.42435547 20.0999414,5.41693359 C20.975332,6.40945313 21.4129102,7.47451172 21.4129102,8.61228516 C21.4129102,9.74982422 20.975332,10.8148242 20.0999414,11.8074023 C19.2242578,12.8002734 18.0448242,13.5863086 16.561582,14.1661523 C15.078457,14.7460547 13.4836523,15.0360352 11.777168,15.0360352 C10.940918,15.0360352 10.0877344,14.9578125 9.21773437,14.8018359 L8.33109375,14.6347852 Z" id="Shape" fill-rule="nonzero"></path>
                <path d="M28.7898633,16.6497656 C29.5819336,15.4839844 29.9776758,14.2324805 29.9776758,12.8940234 C29.9776758,11.5222852 29.559375,10.2395508 28.7232422,9.04640625 C27.8866992,7.85332031 26.7489844,6.86056641 25.3104492,6.06873047 C25.5667383,6.90509766 25.695,7.75265625 25.695,8.61158203 C25.695,10.1058984 25.321875,11.5222852 24.5741602,12.8607422 C23.8269727,14.1987891 22.7562891,15.3808594 21.3622852,16.4070703 C20.0685352,17.3438672 18.5963672,18.0629883 16.9456641,18.5650195 C15.2954297,19.0666992 13.5722461,19.317832 11.7766406,19.317832 C11.4421875,19.317832 10.9514062,19.2957422 10.3046484,19.2512109 C12.5462109,20.7230273 15.1783008,21.4593164 18.2005078,21.4593164 C19.1597461,21.4593164 20.1410742,21.3699023 21.1449023,21.1914844 C22.5277148,22.1732227 24.0781055,22.8866602 25.7954883,23.3330273 C26.1969727,23.4336914 26.6765625,23.5226953 27.2341992,23.6006836 C27.3679687,23.6121094 27.4908984,23.572793 27.6023437,23.4837891 C27.7138477,23.394375 27.7864453,23.2720312 27.8197266,23.1160547 C27.8145117,23.049082 27.8197266,23.0123437 27.836543,23.0070117 C27.8530078,23.0017383 27.8501953,22.965293 27.8281055,22.8984961 C27.8060742,22.8314648 27.7948242,22.7980078 27.7948242,22.7980078 L27.7531055,22.7145703 C27.7415039,22.6925391 27.7226367,22.6616602 27.6945703,22.6227539 C27.6666797,22.584082 27.6444727,22.555957 27.6275977,22.5391406 C27.6111914,22.5225 27.5862891,22.4944336 27.5525977,22.4557031 C27.5193164,22.4170313 27.496875,22.3917188 27.485625,22.3805273 C27.4299023,22.3135547 27.3016992,22.1742188 27.1010156,21.9622266 C26.9000977,21.7505273 26.7553711,21.5860547 26.6661328,21.4689844 C26.5768945,21.3518555 26.4513867,21.1902539 26.2897266,20.9837109 C26.128125,20.7775781 25.9885547,20.562832 25.8714258,20.339707 C25.7543555,20.1166992 25.6400391,19.87125 25.5285352,19.6037695 C26.9109961,18.8000977 27.9986133,17.815957 28.7898633,16.6497656 Z" id="Path"></path>
            </g>
        </g>
    </g>
</svg>