<?xml version="1.0" encoding="UTF-8"?>
<svg width="30px" height="30px" viewBox="0 0 30 30" version="1.1" xmlns="http://www.w3.org/2000/svg" xmlns:xlink="http://www.w3.org/1999/xlink">
    <!-- Generator: Sketch 52.2 (67145) - http://www.bohemiancoding.com/sketch -->
    <title>Rectangle</title>
    <desc>Created with Sketch.</desc>
    <g id="Page-1" stroke="none" stroke-width="1" fill="none" fill-rule="evenodd">
        <g id="Group-34">
            <rect id="Rectangle" x="0" y="0" width="30" height="30"></rect>
            <g id="contract" fill="#FFFFFF" fill-rule="nonzero">
                <path d="M29.2260352,9.44103516 C28.1980078,8.41294922 26.5252148,8.41300781 25.4968359,9.44126953 C25.1805469,9.75785156 23.1611133,11.7789258 22.8526172,12.0877148 L22.8526172,5.12261719 C22.8526172,4.41832031 22.5783398,3.75621094 22.080293,3.25822266 L19.5944531,0.772265625 C19.0964648,0.27421875 18.4342969,0 17.73,0 L2.63777344,0 C1.18388672,0 0.0010546875,1.18283203 0.0010546875,2.63671875 L0.0010546875,27.3632812 C0.0010546875,28.817168 1.18388672,30 2.63777344,30 L20.2158984,30 C21.6697852,30 22.8526172,28.817168 22.8526172,27.3632812 L22.8526172,19.5486914 L29.2259766,13.1699414 C30.2564648,12.1395117 30.2566992,10.471582 29.2260352,9.44103516 Z M17.5792383,1.7578125 C17.745293,1.7578125 18.0652734,1.72904297 18.3515039,2.01521484 L20.8374023,4.50117187 C21.1163086,4.78013672 21.0948633,5.08582031 21.0948633,5.2734375 L17.5792383,5.2734375 L17.5792383,1.7578125 Z M21.0948047,27.3632812 C21.0948047,27.8479102 20.7005859,28.2421875 20.2158984,28.2421875 L2.63777344,28.2421875 C2.15314453,28.2421875 1.75886719,27.8479102 1.75886719,27.3632812 L1.75886719,2.63671875 C1.75886719,2.15208984 2.15314453,1.7578125 2.63777344,1.7578125 L15.8213672,1.7578125 L15.8213672,6.15234375 C15.8213672,6.63773438 16.2148828,7.03125 16.7002734,7.03125 L21.0948047,7.03125 L21.0948047,13.8470508 C21.0948047,13.8470508 18.5017969,16.4422852 18.5016797,16.4423437 L17.2593164,17.6847656 C17.1628711,17.7812109 17.0900977,17.8988672 17.0469727,18.0283008 L15.8039648,21.757207 C15.6986719,22.0730273 15.7808789,22.42125 16.0163086,22.6566211 C16.2520313,22.8923438 16.6003711,22.9741406 16.9157227,22.8689648 L20.6446289,21.6260156 C20.7740625,21.5828906 20.8917188,21.5101758 20.9881641,21.4136719 L21.0948047,21.3070313 L21.0948047,27.3632812 Z M19.1237109,18.3062695 L20.3666602,19.5492187 L19.891875,20.0240039 L18.0274805,20.6454492 L18.6489258,18.7809961 L19.1237109,18.3062695 Z M21.609375,18.3059766 L20.3664258,17.0630273 C21.0283008,16.400625 23.9678906,13.4585156 24.5913281,12.8345508 L25.8342773,14.0775 L21.609375,18.3059766 Z M27.982793,11.9272266 L27.0767578,12.8340234 L25.8338086,11.5910742 L26.7401367,10.6839844 C27.0830273,10.3412695 27.6404883,10.3413281 27.9831445,10.6839844 C28.3257422,11.0267578 28.3275586,11.5824023 27.982793,11.9272266 Z" id="Shape"></path>
                <path d="M16.7002734,8.7890625 L4.39558594,8.7890625 C3.91019531,8.7890625 3.51667969,9.18257813 3.51667969,9.66796875 C3.51667969,10.1533594 3.91019531,10.546875 4.39558594,10.546875 L16.7002734,10.546875 C17.1856641,10.546875 17.5791797,10.1533594 17.5791797,9.66796875 C17.5791797,9.18257813 17.1856641,8.7890625 16.7002734,8.7890625 Z" id="Shape"></path>
                <path d="M13.1846484,12.3046875 L4.39558594,12.3046875 C3.91019531,12.3046875 3.51667969,12.6982031 3.51667969,13.1835938 C3.51667969,13.6689844 3.91019531,14.0625 4.39558594,14.0625 L13.1846484,14.0625 C13.6700391,14.0625 14.0635547,13.6689844 14.0635547,13.1835938 C14.0635547,12.6982031 13.6700391,12.3046875 13.1846484,12.3046875 Z" id="Shape"></path>
                <path d="M13.1846484,15.8203125 L4.39558594,15.8203125 C3.91019531,15.8203125 3.51667969,16.2138281 3.51667969,16.6992188 C3.51667969,17.1846094 3.91019531,17.578125 4.39558594,17.578125 L13.1846484,17.578125 C13.6700391,17.578125 14.0635547,17.1846094 14.0635547,16.6992188 C14.0635547,16.2138281 13.6700391,15.8203125 13.1846484,15.8203125 Z" id="Shape"></path>
                <path d="M13.1846484,19.3359375 L4.39558594,19.3359375 C3.91019531,19.3359375 3.51667969,19.7294531 3.51667969,20.2148438 C3.51667969,20.7002344 3.91019531,21.09375 4.39558594,21.09375 L13.1846484,21.09375 C13.6700391,21.09375 14.0635547,20.7002344 14.0635547,20.2148438 C14.0635547,19.7294531 13.6700391,19.3359375 13.1846484,19.3359375 Z" id="Shape"></path>
                <path d="M11.7746809,26.0961702 C11.8193617,26.37 12.1353191,26.4548936 12.3465957,26.5429787 C12.5508511,26.6291489 12.7946809,26.4657447 12.9644681,26.3834043 C14.0048936,25.877234 15.4142553,26.4721277 16.5287234,26.4721277 C17.1880851,26.4721277 17.1880851,25.4495745 16.5287234,25.4495745 C15.2291489,25.4495745 14.1478723,25.1208511 12.8597872,25.3334043 C12.8597872,25.2587234 12.8323404,25.1578723 12.7519149,25.0206383 C12.5112766,24.6089362 12.2048936,24.4921277 11.8978723,24.5419149 C11.8774468,24.4934043 11.8576596,24.4448936 11.8289362,24.3957447 C11.7485106,24.2642553 11.6361702,24.1985106 11.5097872,24.1710638 C11.8691489,23.5429787 12.1008511,22.8785106 11.8653191,22.3410638 C11.7931915,22.1776596 11.5882979,22.0940426 11.423617,22.0876596 C10.7406383,22.0621277 10.1546809,22.7789362 9.71553191,23.2091489 C8.61702128,24.2859574 7.6493617,25.5082979 6.71297872,26.7248936 C6.31085106,27.2476596 7.2,27.7557447 7.59574468,27.2419149 C8.42553191,26.1644681 9.30446809,25.1182979 10.2504255,24.1397872 C10.0225532,24.5138298 9.7806383,24.8808511 9.52595745,25.2344681 C9.16212766,25.7968085 10.0308511,26.2755319 10.4087234,25.7508511 C10.4987234,25.613617 10.6129787,25.5146809 10.7380851,25.4297872 C10.7131915,25.4929787 10.6876596,25.5548936 10.6621277,25.6187234 C10.6634043,25.6187234 10.6646809,25.6193617 10.6659574,25.62 C10.6461702,25.6608511 10.626383,25.7017021 10.6104255,25.7406383 C10.3819149,26.3131915 11.2353191,26.5755319 11.5455319,26.1338298 C11.6240426,26.022766 11.6968085,25.9040426 11.7625532,25.7795745 C11.7580851,25.8651064 11.7561702,25.98 11.7746809,26.0961702 Z" id="Shape"></path>
            </g>
        </g>
    </g>
</svg>