<?xml version="1.0" encoding="UTF-8"?>
<svg width="30px" height="30px" viewBox="0 0 30 30" version="1.1" xmlns="http://www.w3.org/2000/svg" xmlns:xlink="http://www.w3.org/1999/xlink">
    <!-- Generator: Sketch 52.2 (67145) - http://www.bohemiancoding.com/sketch -->
    <title>Rectangle Copy 12</title>
    <desc>Created with Sketch.</desc>
    <g id="Page-1" stroke="none" stroke-width="1" fill="none" fill-rule="evenodd">
        <g id="Group-31">
            <rect id="Rectangle-Copy-12" x="0" y="0" width="30" height="30"></rect>
            <g id="medal-2" fill-rule="nonzero">
                <path d="M29.0111644,17.7931507 L27.101347,15.1581789 C26.981484,14.9889605 26.9734932,14.755278 27.0933562,14.5860596 L28.9632192,11.9269138 C29.1310274,11.6851732 29.0511187,11.3467365 28.795411,11.2097502 L25.9426712,9.67066882 C25.7588813,9.5739726 25.655,9.36446414 25.6949543,9.15495568 L26.2303425,5.93980661 C26.2782877,5.64971797 26.0625342,5.37574537 25.7668721,5.36768735 L22.5385616,5.23070105 C22.3307991,5.22264303 22.1470091,5.07759871 22.0910731,4.87614827 L21.1960959,1.73352135 C21.1161872,1.45149073 20.8045434,1.2983884 20.5328539,1.41925866 L17.5602511,2.7085415 C17.3684703,2.78912168 17.144726,2.74077357 17.0008904,2.58767123 L14.8433562,0.162207897 C14.6435845,-0.0553585818 14.307968,-0.0553585818 14.1081963,0.170265915 L11.9826256,2.62796132 C11.8467808,2.78912168 11.6230365,2.83746978 11.4312557,2.75688961 L8.44267123,1.51595488 C8.17098174,1.40314263 7.86732877,1.55624496 7.78742009,1.83827558 L6.93239726,4.9809025 C6.87646119,5.18235294 6.7006621,5.32739726 6.49289954,5.3435133 L3.26458904,5.5288477 C2.96892694,5.54496374 2.76116438,5.81893634 2.80910959,6.10902498 L3.39244292,9.31611604 C3.43239726,9.5256245 3.32851598,9.73513296 3.15271689,9.83182917 L0.323949772,11.4112006 C0.0682420091,11.556245 -0.00367579909,11.8946817 0.16413242,12.1283642 L2.07394977,14.763336 C2.19381279,14.9325544 2.20180365,15.1662369 2.08194064,15.3354553 L0.212077626,17.9946011 C0.0442694064,18.2363417 0.124178082,18.5747784 0.379885845,18.7117647 L3.23262557,20.2508461 C3.41641553,20.3475423 3.5202968,20.5570508 3.48034247,20.7665592 L2.94495434,23.9817083 C2.89700913,24.2717969 3.11276256,24.5457695 3.40842466,24.5538276 L6.63673516,24.6908139 C6.84449772,24.6988719 7.02828767,24.8439162 7.08422374,25.0453666 L7.98719178,28.1799355 C8.06710046,28.4619662 8.37874429,28.6150685 8.65043379,28.4941982 L11.6230365,27.2049154 C11.8148174,27.1243352 12.0385616,27.1726833 12.1823973,27.3257857 L14.3399315,29.751249 C14.5397032,29.9688155 14.8753196,29.9688155 15.0750913,29.743191 L17.2006621,27.2854956 C17.3365068,27.1243352 17.5602511,27.0759871 17.752032,27.1565673 L20.7406164,28.397502 C21.0123059,28.5103143 21.3159589,28.3572119 21.3958676,28.0751813 L22.2508904,24.9325544 C22.3068265,24.7311039 22.4826256,24.5860596 22.6903881,24.5699436 L25.9186986,24.3846092 C26.2143607,24.3684932 26.4221233,24.0945205 26.3741781,23.8044319 L25.7908447,20.5973409 C25.7508904,20.3878324 25.8547717,20.1783239 26.0305708,20.0816277 L28.8593379,18.5022562 C29.1150457,18.373328 29.1869635,18.0348912 29.0111644,17.7931507 Z M14.5956393,23.8124899 C9.76116438,23.8124899 5.82166667,19.8398872 5.82166667,14.9647865 C5.82166667,10.0896857 9.76116438,6.117083 14.5956393,6.117083 C19.4301142,6.117083 23.3696119,10.0896857 23.3696119,14.9647865 C23.3696119,19.8479452 19.4301142,23.8124899 14.5956393,23.8124899 Z" id="Shape" fill="#FFFFFF"></path>
                <path d="M19.7598151,13.2635128 L16.1421701,12.9991617 L16.0256961,12.7100472 L14.7785686,9.61439195 C14.7143434,9.45359645 14.484926,9.45359645 14.4201487,9.61576834 L13.0570993,12.9991617 L12.7462337,13.0218775 L9.44024393,13.2634501 C9.26428696,13.277099 9.19190423,13.5023798 9.32641476,13.6173302 L12.0937962,15.9766067 L12.0209298,16.2757173 L11.2293493,19.5250702 C11.1855984,19.7015445 11.3714895,19.8379542 11.5171277,19.7467218 L14.5956393,17.8153027 L14.8613655,17.9820159 L17.6738604,19.7465398 C17.819789,19.8379542 18.0056801,19.7015445 17.9614446,19.5230984 L17.0974823,15.9766067 L17.3317588,15.7768789 L19.8675751,13.6150353 C20.0050636,13.4994987 19.9349555,13.2777467 19.7598151,13.2635128 Z" id="Shape" stroke="#FFFFFF"></path>
            </g>
        </g>
    </g>
</svg>