<?xml version="1.0" encoding="utf-8"?>
<!-- Generator: Adobe Illustrator 22.1.0, SVG Export Plug-In . SVG Version: 6.00 Build 0)  -->
<svg version="1.1" id="圖層_1" xmlns="http://www.w3.org/2000/svg" xmlns:xlink="http://www.w3.org/1999/xlink" x="0px" y="0px"
	 viewBox="0 0 30 30" style="enable-background:new 0 0 30 30;" xml:space="preserve">
<style type="text/css">
	.st0{fill:#222222;}
	.st1{fill:#E5E5E5;}
	.st2{fill:#F9F9F9;}
	.st3{fill:#FCFCFC;}
	.st4{fill:#FBFBFB;}
	.st5{fill:#F1F1F1;}
	.st6{fill:#FEFEFE;}
	.st7{fill:#F5F5F5;}
	.st8{fill:#F3F3F3;}
	.st9{fill:#F4F4F4;}
	.st10{fill:#FFFFFF;}
</style>
<path class="st0" d="M-1184.5,130.5c-2.2,2.9-4.4,5.8-6.6,8.7c-8,13.9-20.6,23.3-32.5,33.4c-20.3,17.6-43.6,29.6-69.3,37
	c-3.8,1.1-7.6,2.1-11.1,3.8c-10.2,11-20.3,22.1-32.4,31.1c-27.5,21.1-58.7,33.4-92.8,38.6c-1.4,0.2,0.3,0.3-1.1,0
	c-22.5-3.7-41.3,6.9-61.2,14.6c-29.5,11.4-60.1,14.9-92.1,12.1c-43.1-3.7-81.2-20.4-118.6-39.9c-15.2-8.8-29-19.8-44-28.9
	c-9.9-9.7-21.8-17.4-30.4-28.5c-13.1-13-26.2-26-39.3-39c-17.7-14.6-33.6-31.1-49.9-47.3c-4.8-4.8-9.6-9.6-14.5-14.4
	c-8.4-8.9-17.7-16.8-25.5-26.2c-17.5-14-29.7-33.4-47.5-47.1c-3.1-0.3-5.4-2.4-7-4.7c-8.4-11.9-20-13.6-33.8-13.4
	c-72.1,0.6-144.1,0.3-216.2,0.3c-6.5,0-12.9,0-18.3-4.3c-20.5-10.8-28.4-27.4-28.3-50.9c0.6-146,0.3-292,0.3-438
	c0-28.9,17.8-47,46.8-47c90-0.1,180.1-0.1,270.1,0.1c6.6,0,11.2-1.8,15.9-6.6c28.6-29.2,56.2-59.4,87.6-85.8
	c41.8-35.2,89-57.3,144.5-58c36.6-0.4,73.1-1.5,109.7,1.1c34.5,2.4,65.5,14.4,94.7,31.9c3.8,2.3,6.4,4.1,11.3,1
	c32.7-20.9,68.3-32.9,107.2-33.7c47-1.1,94-1.7,140.9,0.3c61.8,2.6,111.2,32,153.9,74.5c27.2,27.1,51.4,57,76,86.4
	c6.2,7.4,12.5,10.7,22.6,10.6c73.2-0.5,146.4,0.5,219.5-0.7c29.9-0.5,49.6,23.3,49.5,49.6c-1,138.1-0.8,276.2-0.2,414.3
	c0.1,23.4-7.8,40.1-28.3,50.9c-5.8,4.7-12.6,4.3-19.4,4.3c-91.3,0-182.7,0-274,0c-4.9,0-10.1-1.2-14.6,2
	c-12.1,23.5-26.8,45.1-47.1,62.4c-10.8,13.6-26.5,20-41.3,27.6c-13.7,7-28.6,10.5-43.6,13.2
	C-1178.9,126.8-1181.7,128.3-1184.5,130.5z"/>
<path class="st1" d="M-1404.5-196.9c28.5-29.2,55-60.2,82.3-90.5c2.2-2.4,3.2-6.8,7.9-6.1c11.1-13.1,11.1-13.1,23.8-1.1
	c1.3,1.2,2.7,2.2,4,3.3c12.5,11.7,22.6,25.4,33.8,38.1c42.5,48.3,80.1,100.3,119,151.4c22.4,29.4,24.6,62.9,7.6,95.3
	c-16.3,30.9-44.4,45.6-79.3,46.9c-10.8,0.4-21.5,0.5-31.8-4.8c-7.1,39.8-30.8,66-65.4,83.6c-14.7,7.5-30.7,9.8-47,9.2
	c-6.1-0.2-8.4,1.8-10.7,7.4c-17.8,44.4-66.4,69-113.2,57.4c-5.5-1.4-9.3-1.1-14.2,2.9c-35,28.2-75.1,31.1-117,21.2
	c-40.9-9.7-74.9-32.4-104.6-61c-64.8-62.5-129.6-125-192.6-189.3c-24.9-25.4-52-38.1-87-34.5c-6.8,0.7-10-0.3-10-8.7
	c0.3-116.2,0.2-232.4,0.2-348.6c0-1.4,0.2-2.9,0.3-4.3c4.1-3.3,8.9-2,13.5-2c30.1-0.5,60.2,0.7,90.2-0.7
	c24.4-22.2,46.6-46.5,70.4-69.4c19.6-18.9,37-40,59.6-55.7c23.4-15.8,49.3-24.2,77.4-24.8c26.1-0.6,52.2-0.2,78.3-0.2
	c21.8,0,42.3,5.4,62.4,13c-25.7,30.3-51.3,60.5-77,90.8c-15.5,18.3-31.8,36-46.4,55c-43.8,56.9-44.3,135.7-2.3,194
	c8.5,11.8,18.1,22.7,28.7,32.6c16.5,18.4,38.2,28.4,60.9,36.2c23.9,8.2,48.8,10.7,73.8,8.7c36.3-2.9,69.4-15,98.1-37.9
	C-1408.1-191.5-1406-193.9-1404.5-196.9z"/>
<path class="st1" d="M-965.7-407.5c0.1,84.6,0.2,169.2,0.4,253.8c0,26.2-0.2,52.4,0.1,78.5c0.1,5.9-1.3,8-7.6,7.9
	c-16.8-0.4-33.7-0.4-50.6,0c-5,0.1-6.6-1.4-7.3-6.4c-4.6-33.2-19.8-61.6-39.7-88.1c-53.5-71-107.5-141.6-168.7-206.3
	c-5.2-5.4-7.7-10.3-6.3-18.6c2.9-17.7-8.5-36.1-25-43.5c-17-7.6-38.1-2.3-52.5,13.8c-36,40.4-71.7,81.2-107.7,121.6
	c-14.9,16.8-28.2,35.4-49.5,45.5c-54.2,25.6-124.2-0.9-136.2-62.9c-5.5-28.6,6.7-51.1,25-71.7c18-20.2,35.4-40.9,53-61.5
	c27-31.4,53.9-62.8,80.9-94.1c6.1-7,12.3-13.9,20.5-18.7c14.9-7.6,28.9-17.1,45.9-19.7c9.8-1.5,19.5-3.8,29.5-3.8
	c35,0,70.1,0.3,105.1-0.1c20.5-0.3,40.5,1.6,59.8,8.8c18.7,4.7,33.4,16.4,48.4,27.6c18.4,15,32.9,33.7,48.5,51.4
	c20.5,23.2,40.8,46.6,61.1,70c1.6,1.8,2.9,3.9,4.4,5.9c3.4,6.9,8.9,9.1,16.6,8.8c13.5-0.5,27.1-0.2,40.6-0.1
	C-973.1-409.6-969-410.6-965.7-407.5z"/>
<path class="st1" d="M-800-134.2c11.5,20.5,8.2,43.6-8.3,57.5c-14.4,12.2-41.4,12.2-55.9,0c-16.4-13.8-19.7-37-8.2-57.5
	c7.2-5.8,13.1-12.8,22.9-15.2C-829.7-154.2-813.6-148.9-800-134.2z"/>
<path class="st1" d="M-2091.4-134.2c11.5,20.5,8.2,43.6-8.3,57.5c-14.4,12.2-41.4,12.2-55.9,0c-16.4-13.8-19.7-37-8.2-57.5
	c7.2-5.8,13.1-12.8,22.9-15.2C-2121-154.2-2104.9-148.9-2091.4-134.2z"/>
<path class="st2" d="M-1404.5-196.9c-0.2,5.9-4.7,8.8-8.6,11.7c-24.8,18.7-52.5,29.8-83.4,34.1c-36.1,5-70.5,0.6-103.9-13.6
	c-13.2-5.6-25.1-13.6-36.5-22.4c-3.1-2.3-6.2-5-6.5-9.4c31,25.5,66.3,40.1,106.6,42.5C-1487-151-1442.7-164.3-1404.5-196.9z"/>
<path class="st3" d="M-1193.5-571c-56.9-16.1-115.1-6.7-172.7-8.1c-22.5-0.6-44.5,6-63.5,19.7c-2.1,1.5-4.1,4.8-7.1,1.1
	c17.9-14.8,38.6-23.2,61.7-24.2c51.2-2.2,102.4-3,153.6,0.6c11.4,0.8,21.5,6.1,32.2,9C-1189.3-569.2-1191.2-569.7-1193.5-571z"/>
<path class="st4" d="M-1546.3-568.8c-7.8,0.7-14.6-3.1-21.8-5c-15.7-4-31.4-6.3-47.6-5.9c-30.3,0.8-60.8-1.7-91,2.3
	c-21.7,2.9-41,12-59.2,23.6c-2.2,0.8-2.8-0.2-2.2-2.2c19.7-15.1,41.9-24.5,66.7-26.2c38.8-2.6,77.8-5.4,116.6,0.2
	c13.4,1.9,26.6,5.1,38.8,11.5c0.2,0.1,0.5,0.5,0.4,0.8C-1545.8-569.4-1546.1-569.1-1546.3-568.8z"/>
<path class="st5" d="M-1768.2-556c0.7,0.7,1.5,1.5,2.2,2.2c-40.1,33.5-74.6,72.9-112.2,109c-4.1,3.9-8.4,7.7-12.6,11.5
	c-0.9,1-1.8,1-2.5-0.2c38.5-38.7,77-77.5,115.7-116.1C-1775.1-552.3-1771.4-553.9-1768.2-556z"/>
<path class="st6" d="M-1893.4-433.5c0.8,0.1,1.7,0.1,2.5,0.2c-2.7,5.4-7.7,4.3-12.2,4.3c-31.7,0-63.4,0-95.1,0
	c-0.5-7.7,5.4-4,8.2-4.1C-1957.7-433.5-1925.6-433.4-1893.4-433.5z"/>
<path class="st7" d="M-2091.4-134.2c-8.8-3.5-14.7-11.8-25.1-13.2c-16-2.1-30.5-1-42.5,11.1c-1.1,1.2-3.2,1.4-4.8,2.1
	C-2147-160.4-2108.2-160.4-2091.4-134.2z"/>
<path class="st7" d="M-800-134.2c-8.8-3.5-14.7-11.8-25.1-13.2c-16-2.2-30.5-1-42.5,11.1c-1.1,1.2-3.2,1.4-4.8,2.1
	C-855.7-160.4-816.8-160.4-800-134.2z"/>
<path class="st3" d="M-965.7-407.5c-18.4,0-36.8-0.1-55.2,0.1c-7.7,0.1-12.3-3-13.3-10.9c4.1,5.7,9.8,6.8,16.6,6.6
	c14.9-0.5,29.8-0.3,44.8,0C-970.1-411.6-964.8-414.4-965.7-407.5z"/>
<path class="st8" d="M-1193.5-571c1.4-0.6,2.8-1.3,4.3-1.9c15.9,5.8,30.1,14.2,41.1,27.4c-5.5,2-6.9-3.7-9.9-5.8
	C-1169.3-559.1-1181.5-564.9-1193.5-571z"/>
<path class="st9" d="M-1286.4-291.3c-1.3-0.4-3.2-0.5-3.8-1.4c-7.7-11.2-15.7-10.8-24-0.8c0.8-6.3,6.5-9.1,9.7-13.6
	c1.8-2.5,3.6-1.3,5.1,0.5C-1295.2-301.4-1289.5-297.4-1286.4-291.3z"/>
<path class="st1" d="M-2091.4,1798c11.5,20.5,8.2,43.6-8.3,57.5c-14.4,12.2-41.4,12.2-55.9,0c-16.4-13.8-19.7-37-8.2-57.5
	c7.2-5.8,13.1-12.8,22.9-15.2C-2121,1778-2104.9,1783.4-2091.4,1798z"/>
<path class="st2" d="M-1404.5,1735.4c-0.2,5.9-4.7,8.8-8.6,11.7c-24.8,18.7-52.5,29.8-83.4,34.1c-36.1,5-70.5,0.6-103.9-13.6
	c-13.2-5.6-25.1-13.6-36.5-22.4c-3.1-2.3-6.2-5-6.5-9.4c31,25.5,66.3,40.1,106.6,42.5C-1487,1781.2-1442.7,1767.9-1404.5,1735.4z"/>
<path class="st5" d="M-1768.2,1376.2c0.7,0.7,1.5,1.5,2.2,2.2c-40.1,33.5-74.6,72.9-112.2,109c-4.1,3.9-8.4,7.7-12.6,11.5
	c-0.9,1-1.8,1-2.5-0.2c38.5-38.7,77-77.5,115.7-116.1C-1775.1,1380-1771.4,1378.3-1768.2,1376.2z"/>
<path class="st6" d="M-1893.4,1498.7c0.8,0.1,1.7,0.1,2.5,0.2c-2.7,5.4-7.7,4.3-12.2,4.3c-31.7,0-63.4,0-95.1,0
	c-0.5-7.7,5.4-4,8.2-4.1C-1957.7,1498.8-1925.6,1498.8-1893.4,1498.7z"/>
<g>
	<path class="st10" d="M16,24C16,24,16,24,16,24L16,24z"/>
	<path class="st10" d="M30,9.8c0-0.5-0.4-1-1-1c-1.4,0-2.8,0-4.2,0c-0.2,0-0.3-0.1-0.4-0.2c-0.5-0.6-0.9-1.1-1.5-1.7
		c-0.8-0.8-1.8-1.4-3-1.4c-0.9,0-1.8,0-2.7,0c-0.8,0-1.4,0.2-2.1,0.7c-0.1,0.1-0.1,0-0.2,0c-0.6-0.3-1.2-0.6-1.8-0.6
		c-0.7,0-1.4,0-2.1,0c-1.1,0-2,0.4-2.8,1.1C7.5,7.2,7,7.7,6.4,8.3C6.4,8.4,6.3,8.4,6.1,8.4c-1.7,0-3.5,0-5.2,0C0.4,8.4,0,8.8,0,9.3
		c0,2.8,0,5.6,0,8.5c0,0.5,0.2,0.8,0.5,1c0.1,0.1,0.2,0.1,0.4,0.1c1.4,0,2.8,0,4.2,0c0.3,0,0.5,0,0.7,0.3c0,0,0.1,0.1,0.1,0.1
		c0.3,0.3,0.6,0.6,0.9,0.9c0.2,0.2,0.3,0.3,0.5,0.5c0.1,0.1,0.2,0.2,0.3,0.3c0.3,0.3,0.6,0.6,1,0.9c0.3,0.3,0.5,0.5,0.8,0.8
		c0.2,0.2,0.4,0.4,0.6,0.6c0.3,0.2,0.6,0.4,0.9,0.6c0.7,0.4,1.5,0.7,2.3,0.8c0.6,0.1,1.2,0,1.8-0.2c0.4-0.1,0.7-0.4,1.2-0.3
		c0,0,0,0,0,0c0,0,0,0,0,0c0.7-0.1,1.3-0.3,1.8-0.7c0.2-0.2,0.4-0.4,0.6-0.6c0.1,0,0.1-0.1,0.2-0.1c0.5-0.1,0.9-0.4,1.3-0.7
		c0.2-0.2,0.5-0.4,0.6-0.6c0-0.1,0.1-0.1,0.1-0.2c0.1,0,0.1-0.1,0.2-0.1c0.3-0.1,0.6-0.1,0.8-0.3c0.3-0.1,0.6-0.3,0.8-0.5
		c0.4-0.3,0.7-0.8,0.9-1.2c0.1-0.1,0.2,0,0.3,0c1.8,0,3.5,0,5.3,0c0.1,0,0.3,0,0.4-0.1c0.4-0.2,0.6-0.5,0.5-1
		C30,15.1,30,12.5,30,9.8z M3,17c-0.3,0.2-0.8,0.2-1.1,0c-0.3-0.3-0.4-0.7-0.2-1.1c0.1-0.1,0.3-0.2,0.4-0.3c0.4-0.1,0.7,0,1,0.3
		C3.4,16.3,3.4,16.7,3,17z M21.9,18.4c-0.3,0.6-0.9,0.9-1.5,0.9c-0.2,0-0.4,0-0.6-0.1c-0.1,0.8-0.6,1.3-1.3,1.6
		c-0.3,0.1-0.6,0.2-0.9,0.2c-0.1,0-0.2,0-0.2,0.1c-0.3,0.9-1.3,1.3-2.2,1.1c-0.1,0-0.2,0-0.3,0.1c-0.7,0.5-1.5,0.6-2.3,0.4
		c-0.8-0.2-1.4-0.6-2-1.2c-1.3-1.2-2.5-2.4-3.7-3.7c-0.5-0.5-1-0.7-1.7-0.7c-0.1,0-0.2,0-0.2-0.2c0-2.2,0-4.5,0-6.7c0,0,0-0.1,0-0.1
		c0.1-0.1,0.2,0,0.3,0c0.6,0,1.2,0,1.7,0c0.5-0.4,0.9-0.9,1.4-1.3C8.8,8.4,9.1,8,9.5,7.7c0.5-0.3,1-0.5,1.5-0.5c0.5,0,1,0,1.5,0
		c0.4,0,0.8,0.1,1.2,0.3c-0.5,0.6-1,1.2-1.5,1.8c-0.3,0.4-0.6,0.7-0.9,1.1c-0.8,1.1-0.9,2.6,0,3.8c0.2,0.2,0.4,0.4,0.6,0.6
		c0.3,0.4,0.7,0.5,1.2,0.7c0.5,0.2,0.9,0.2,1.4,0.2c0.7-0.1,1.3-0.3,1.9-0.7c0,0,0.1-0.1,0.1-0.1c0.6-0.6,1.1-1.2,1.6-1.8
		c0,0,0.1-0.1,0.2-0.1c0.2-0.3,0.2-0.3,0.5,0c0,0,0.1,0,0.1,0.1c0.2,0.2,0.4,0.5,0.7,0.7c0.8,0.9,1.6,1.9,2.3,2.9
		C22.2,17.1,22.2,17.7,21.9,18.4z M24.8,17.2c-0.3,0-0.7,0-1,0c-0.1,0-0.1,0-0.1-0.1c-0.1-0.6-0.4-1.2-0.8-1.7c-1-1.4-2.1-2.7-3.3-4
		c-0.1-0.1-0.1-0.2-0.1-0.4c0.1-0.3-0.2-0.7-0.5-0.8c-0.3-0.1-0.7,0-1,0.3c-0.7,0.8-1.4,1.6-2.1,2.4c-0.3,0.3-0.5,0.7-1,0.9
		c-1,0.5-2.4,0-2.6-1.2c-0.1-0.6,0.1-1,0.5-1.4c0.3-0.4,0.7-0.8,1-1.2c0.5-0.6,1-1.2,1.6-1.8c0.1-0.1,0.2-0.3,0.4-0.4
		c0.3-0.1,0.6-0.3,0.9-0.4c0.2,0,0.4-0.1,0.6-0.1c0.7,0,1.4,0,2,0c0.4,0,0.8,0,1.2,0.2c0.4,0.1,0.6,0.3,0.9,0.5
		c0.4,0.3,0.6,0.7,0.9,1c0.4,0.4,0.8,0.9,1.2,1.4c0,0,0.1,0.1,0.1,0.1c0.1,0.1,0.2,0.2,0.3,0.2c0.3,0,0.5,0,0.8,0c0.1,0,0.2,0,0.2,0
		c0,1.6,0,3.3,0,4.9c0,0.5,0,1,0,1.5C25,17.1,25,17.2,24.8,17.2z M28,17c-0.3,0.2-0.8,0.2-1.1,0c-0.3-0.3-0.4-0.7-0.2-1.1
		c0.1-0.1,0.3-0.2,0.4-0.3c0.4-0.1,0.7,0,1,0.3C28.4,16.3,28.4,16.7,28,17z"/>
</g>
</svg>
