<?xml version="1.0" encoding="UTF-8"?>
<svg width="30px" height="30px" viewBox="0 0 30 30" version="1.1" xmlns="http://www.w3.org/2000/svg" xmlns:xlink="http://www.w3.org/1999/xlink">
    <!-- Generator: Sketch 52.2 (67145) - http://www.bohemiancoding.com/sketch -->
    <title>Rectangle Copy 5</title>
    <desc>Created with Sketch.</desc>
    <g id="Page-1" stroke="none" stroke-width="1" fill="none" fill-rule="evenodd">
        <g id="Group-33">
            <rect id="Rectangle-Copy-5" x="0" y="0" width="30" height="30"></rect>
            <g id="icon-2" transform="translate(4.000000, 0.000000)" fill="#FFFFFF" fill-rule="nonzero">
                <path d="M17.9175,8.72201493 C13.7240625,11.2798507 10.7015625,14.5102612 9.474375,15.9458955 L6.3234375,13.4897388 C6.24,13.4300373 4.5103125,14.9580224 4.55625,15.005597 L10.2946875,20.8106343 C10.336875,20.858209 10.395,20.8796642 10.4578125,20.8796642 C10.4690625,20.8796642 10.486875,20.8796642 10.501875,20.8759328 C10.576875,20.8591418 10.640625,20.8087687 10.66875,20.7341418 C11.593125,18.3824627 14.645625,13.4589552 18.54375,9.8880597 C18.613125,9.82276119 18.6375,9.72014925 18.5990625,9.63152985 C18.598125,9.63059701 17.975625,8.68656716 17.9175,8.72201493 Z" id="Shape"></path>
                <path d="M21.680625,3.58395522 C12.991875,3.58395522 11.521875,0.302238806 11.50875,0.271455224 C11.445,0.111007463 11.2875,0.00373134328 11.109375,0 C11.109375,0 11.105625,0 11.101875,0 C10.929375,0 10.77,0.107276119 10.700625,0.263992537 C10.6903125,0.298507463 9.1884375,3.58395522 0.5325,3.58395522 C0.290625,3.58395522 0.099375,3.77891791 0.099375,4.01399254 L0.099375,18.7192164 C0.099375,24.738806 10.490625,29.3376866 10.9303125,29.5307836 C10.9884375,29.5559701 11.04375,29.5652985 11.1065625,29.5652985 C11.16375,29.5652985 11.225625,29.5559701 11.2809375,29.5307836 C11.724375,29.3376866 22.11375,24.738806 22.11375,18.7192164 L22.11375,4.01399254 C22.111875,3.77891791 21.9196875,3.58395522 21.680625,3.58395522 Z M19.723125,17.863806 C19.723125,22.573694 11.5875,26.1772388 11.2415625,26.3264925 C11.199375,26.3479478 11.1496875,26.3554104 11.105625,26.3554104 C11.0578125,26.3554104 11.01375,26.3479478 10.96875,26.3264925 C10.6265625,26.1772388 2.488125,22.573694 2.488125,17.863806 L2.488125,6.35354478 C2.488125,6.16791045 2.6390625,6.01492537 2.8275,6.01492537 C9.6046875,6.01492537 10.779375,3.44402985 10.790625,3.41884328 C10.8440625,3.29477612 10.9678125,3.2108209 11.10375,3.2108209 C11.105625,3.2108209 11.109375,3.2108209 11.109375,3.2108209 C11.248125,3.21268657 11.3709375,3.29664179 11.420625,3.4244403 C11.431875,3.44776119 12.583125,6.01492537 19.38375,6.01492537 C19.5721875,6.01492537 19.7221875,6.16791045 19.7221875,6.35354478 L19.723125,17.863806 Z" id="Shape"></path>
            </g>
        </g>
    </g>
</svg>