<?xml version="1.0" encoding="UTF-8"?>
<svg width="30px" height="30px" viewBox="0 0 30 30" version="1.1" xmlns="http://www.w3.org/2000/svg" xmlns:xlink="http://www.w3.org/1999/xlink">
    <!-- Generator: Sketch 52.2 (67145) - http://www.bohemiancoding.com/sketch -->
    <title>Rectangle Copy 13</title>
    <desc>Created with Sketch.</desc>
    <g id="Page-1" stroke="none" stroke-width="1" fill="none" fill-rule="evenodd">
        <g id="Group-29">
            <rect id="Rectangle-Copy-13" x="0" y="0" width="30" height="30"></rect>
            <g id="dollar-symbol" transform="translate(7.000000, 0.000000)" fill="#FFFFFF">
                <path d="M11.9647423,13.6047835 C10.7894845,12.955299 9.54,12.4604536 8.3028866,11.9470515 C7.58536082,11.6501443 6.89876289,11.3037526 6.29257732,10.8212784 C5.09876289,9.86870103 5.32762887,8.32230928 6.72556701,7.70993814 C7.1214433,7.53674227 7.53587629,7.48107216 7.95649485,7.4563299 C9.5771134,7.36973196 11.1173196,7.66663918 12.583299,8.37179381 C13.3131959,8.72437113 13.554433,8.61303093 13.8018557,7.85220619 C14.0616495,7.04808247 14.2781443,6.23158763 14.5193814,5.42127835 C14.6802062,4.87694845 14.482268,4.51818557 13.968866,4.28931959 C13.0286598,3.8748866 12.0637113,3.57797938 11.0492784,3.41715464 C9.72556701,3.21303093 9.72556701,3.20684536 9.71938144,1.87694845 C9.71319588,0.00272164948 9.71319588,0.00272164948 7.83278351,0.00272164948 C7.56061856,0.00272164948 7.28845361,-0.00346391753 7.01628866,0.00272164948 C6.13793814,0.0274639175 5.98948454,0.182103093 5.96474227,1.06663918 C5.95237113,1.46251546 5.96474227,1.85839175 5.9585567,2.26045361 C5.95237113,3.43571134 5.94618557,3.41715464 4.82041237,3.82540206 C2.09876289,4.81509278 0.41628866,6.67076289 0.236907216,9.63983505 C0.0760824742,12.268701 1.44927835,14.0439588 3.60804124,15.3367423 C4.93793814,16.1346804 6.41010309,16.6047835 7.82041237,17.2295258 C8.37092784,17.4707629 8.89670103,17.7491134 9.35443299,18.1326186 C10.7090722,19.2522062 10.4616495,21.1140619 8.85340206,21.8192165 C7.99360825,22.1965361 7.0843299,22.2893196 6.15030928,22.1717938 C4.70907216,21.9924124 3.32969072,21.6150928 2.03072165,20.940866 C1.26989691,20.5449897 1.04721649,20.6501443 0.78742268,21.4728247 C0.564742268,22.1841649 0.366804124,22.9016907 0.168865979,23.6192165 C-0.0971134021,24.5841649 0.0018556701,24.8130309 0.923505155,25.2645773 C2.09876289,25.8336495 3.35443299,26.1243711 4.63484536,26.3284948 C5.63690722,26.4893196 5.66783505,26.5326186 5.68020619,27.5717938 C5.68639175,28.0418969 5.68639175,28.5181856 5.69257732,28.9882887 C5.69876289,29.5821031 5.98329897,29.9284948 6.5956701,29.940866 C7.28845361,29.9532371 7.98742268,29.9532371 8.68020619,29.9346804 C9.24927835,29.9223093 9.54,29.6130309 9.54,29.0377732 C9.54,28.3944742 9.57092784,27.7449897 9.54618557,27.1016907 C9.51525773,26.4460206 9.79979381,26.112 10.4307216,25.9388041 C11.8843299,25.5429278 13.1214433,24.7635464 14.0740206,23.6006598 C16.7214433,20.3841649 15.7131959,15.6769485 11.9647423,13.6047835 Z" id="Path"></path>
            </g>
        </g>
    </g>
</svg>