<?xml version="1.0" encoding="UTF-8"?>
<svg width="30px" height="30px" viewBox="0 0 30 30" version="1.1" xmlns="http://www.w3.org/2000/svg" xmlns:xlink="http://www.w3.org/1999/xlink">
    <!-- Generator: Sketch 52.2 (67145) - http://www.bohemiancoding.com/sketch -->
    <title>Rectangle Copy 6</title>
    <desc>Created with Sketch.</desc>
    <g id="Page-1" stroke="none" stroke-width="1" fill="none" fill-rule="evenodd">
        <g id="Group-28">
            <rect id="Rectangle-Copy-6" x="0" y="0" width="30" height="30"></rect>
            <g id="fluffy-cloud-silhouette" transform="translate(0.000000, 4.000000)" fill="#FFFFFF">
                <path d="M28.6438798,12.2439891 C27.7703825,11.1569399 26.6621858,10.4575956 25.3206557,10.1456831 C25.7474317,9.49032787 25.9602186,8.7726776 25.9602186,7.99273224 C25.9602186,6.89016393 25.5701093,5.94896175 24.7903279,5.16879781 C24.0103825,4.3889071 23.0691257,3.99879781 21.9665574,3.99879781 C20.9681421,3.99879781 20.1047541,4.32125683 19.3769399,4.96617486 C18.7635519,3.48923497 17.7881421,2.29311475 16.4518579,1.37781421 C15.1152459,0.46273224 13.6251913,0.00486338798 11.9818033,0.00486338798 C9.77693989,0.00486338798 7.8942623,0.785136612 6.33409836,2.34530055 C4.77382514,3.90508197 3.99393443,5.78786885 3.99393443,7.99289617 C3.99393443,8.14896175 4.00437158,8.37240437 4.02513661,8.6636612 C2.81868852,9.22535519 1.84612022,10.0755738 1.10770492,11.2148087 C0.369344262,12.353388 0,13.6095628 0,14.9825137 C0,16.906612 0.683989071,18.552623 2.0515847,19.9201639 C3.41923497,21.2880874 5.0652459,21.9719672 6.98939891,21.9719672 L23.9640437,21.9719672 C25.617541,21.9719672 27.0293989,21.3864481 28.1996721,20.2167213 C29.3697814,19.0466667 29.954918,17.6348087 29.954918,15.980929 C29.9547541,14.5768852 29.5177049,13.3307104 28.6438798,12.2439891 Z" id="Path"></path>
            </g>
        </g>
    </g>
</svg>