<?xml version="1.0" encoding="utf-8"?>
<!-- Generator: Adobe Illustrator 22.0.1, SVG Export Plug-In . SVG Version: 6.00 Build 0)  -->
<svg version="1.1" id="圖層_1" xmlns="http://www.w3.org/2000/svg" xmlns:xlink="http://www.w3.org/1999/xlink" x="0px" y="0px"
	 viewBox="0 0 30 30" style="enable-background:new 0 0 30 30;" xml:space="preserve">
<style type="text/css">
	.st0{fill:#FFFFFF;}
</style>
<g>
	<path class="st0" d="M27.4,26.8c-0.5-4.5-2.7-7.8-6.7-9.9c-0.9-0.5-0.9-0.7-0.2-1.4c2.4-2.3,3.1-5.7,1.9-8.7C21.1,3.9,18.2,2,15,2
		c-3.3,0-6.2,1.9-7.4,4.9c-1.2,3-0.5,6.4,1.9,8.7c0.8,0.7,0.7,0.9-0.2,1.4c-3.9,2-6.1,5.2-6.7,9.5C2.4,28,2.5,28.1,4.1,28
		c1.1-0.1,0.7-1,0.8-1.5c0.8-4.1,3.1-6.7,7-8.2c0.9-0.3,1.5-0.3,1.7,0.8C13.6,20,14.2,20,15,20c0.7,0,1.3-0.1,1.4-1
		c0.1-1.1,0.8-1.2,1.7-0.8c0.4,0.2,0.7,0.3,1.1,0.4c3.5,1.7,5.5,4.5,5.9,8.3c0.1,1.3,1,0.9,1.7,0.9C27.8,28,27.4,27.3,27.4,26.8z
		 M15,15.4c-3.2,0-5.6-2.4-5.6-5.6c0-3.1,2.4-5.6,5.6-5.7c3.1,0,5.7,2.5,5.7,5.7C20.6,13.1,18.2,15.4,15,15.4z"/>
	<path class="st0" d="M16.3,22c-0.1-0.8-0.6-0.9-1.2-0.9c-0.6,0-1.3-0.2-1.4,0.8c-0.1,1.3-0.4,2.5-0.6,3.8C12.7,28,12.7,28,14.9,28
		c0.4,0,0.9,0,1.3,0c0.9,0.1,1-0.2,0.8-1.1C16.7,25.3,16.5,23.6,16.3,22z"/>
</g>
</svg>
