<?xml version="1.0" encoding="utf-8"?>
<!-- Generator: Adobe Illustrator 22.0.1, SVG Export Plug-In . SVG Version: 6.00 Build 0)  -->
<svg version="1.1" baseProfile="basic" xmlns="http://www.w3.org/2000/svg" xmlns:xlink="http://www.w3.org/1999/xlink" x="0px"
	 y="0px" viewBox="0 0 200 45" xml:space="preserve">
<style type="text/css">
	.st0{fill:#F2F2F2;}
	.st1{fill:#1C2C73;}
	.st2{fill:#F4C31D;}
	.st3{fill:#FFFFFF;}
	.st4{fill:none;stroke:#F4C31D;stroke-width:16;stroke-miterlimit:10;}
	.st5{fill:#484848;}
	.st6{fill:#E71E23;}
	.st7{fill:#F7F8F8;}
	.st8{fill:none;stroke:#F4C31D;stroke-width:12.2104;stroke-miterlimit:10;}
	.st9{clip-path:url(#SVGID_2_);}
	.st10{opacity:0.9;}
	.st11{clip-path:url(#SVGID_4_);}
	.st12{fill:#3E3A39;}
	.st13{fill:none;stroke:#F4C31D;stroke-width:8;stroke-miterlimit:10;}
	.st14{fill:#040000;}
	.st15{fill:none;stroke:#FFFFFF;stroke-width:3.3714;}
	.st16{fill:#FFFFFF;stroke:#FFFFFF;stroke-width:1.7742;}
	.st17{fill:#CBCFDA;}
	.st18{fill:#F3F4F5;}
	.st19{fill:#B2B7C5;}
	.st20{fill:#343640;}
	.st21{fill:#191C21;}
	.st22{fill:url(#);}
	.st23{fill:none;stroke:#040000;stroke-width:0.25;stroke-miterlimit:10;}
	.st24{fill:#1D1E1D;}
	.st25{fill:none;stroke:#324799;stroke-width:6.6107;}
	.st26{fill:#1C2A76;}
	.st27{fill:#BCBDC0;}
	.st28{fill:none;stroke:#FFFFFF;stroke-miterlimit:10;}
	.st29{fill:none;stroke:#040000;stroke-width:0.1966;stroke-miterlimit:10;}
	.st30{fill:#EFEFEF;}
	.st31{fill:#E60012;}
</style>
<g id="圖層_3">
	<g>
		<g>
			<g>
				<path class="st2" d="M93.4,11.5c2.7,0,4.8,2.2,4.8,4.8c0,2.7-2.2,4.8-4.8,4.8c-2.7,0-4.8-2.2-4.8-4.8
					C88.6,13.7,90.8,11.5,93.4,11.5z M93.5,19.9c1.9,0,3.6-1.6,3.5-3.7c-0.1-1.9-1.6-3.5-3.6-3.4c-1.9,0-3.5,1.6-3.5,3.6
					C89.9,18.4,91.5,19.9,93.5,19.9z"/>
				<path class="st2" d="M92.6,18.6c0-0.2,0-0.4,0-0.5c0-0.2-0.1-0.4-0.2-0.6c-0.2-0.2-0.4-0.3-0.7-0.4c0,0-0.1,0-0.1,0
					c-0.3,0-0.7,0-1,0c0,0,0,0,0,0c-0.1-0.3-0.1-0.5-0.1-0.8c0-0.2,0-0.3,0.1-0.5c0,0,0,0,0,0c0.2,0,0.4,0,0.5-0.1
					c0.2-0.1,0.4-0.1,0.6-0.3c0.2-0.1,0.4-0.3,0.7-0.4c0.2-0.1,0.4-0.2,0.6-0.2c0.2,0,0.4,0,0.6,0c0.2,0,0.5,0.1,0.7,0.2
					c0.2,0.1,0.3,0.1,0.4,0.2c0.2,0.1,0.4,0.2,0.6,0.3c0.2,0.1,0.5,0.2,0.7,0.2c0.1,0,0.1,0,0.2,0c0,0,0,0,0,0
					c0,0.2,0.1,0.4,0.1,0.7c0,0.2,0,0.4-0.1,0.7c0,0,0,0,0,0c-0.4,0-0.7,0-1.1,0c-0.2,0-0.4,0.1-0.6,0.2c-0.2,0.2-0.3,0.3-0.4,0.6
					c0,0.1,0,0.1,0,0.2c0,0.3,0,0.7,0,1c0,0,0,0,0,0c-0.2,0-0.3,0.1-0.5,0.1c-0.1,0-0.3,0-0.4,0c-0.2,0-0.4,0-0.6-0.1c0,0,0,0,0,0
					C92.6,18.9,92.6,18.8,92.6,18.6C92.6,18.6,92.6,18.6,92.6,18.6z M94.2,16.4c0-0.4-0.3-0.8-0.8-0.8c-0.4,0-0.8,0.4-0.8,0.8
					c0,0.4,0.4,0.8,0.8,0.8C93.9,17.1,94.2,16.8,94.2,16.4z"/>
			</g>
			<path class="st2" d="M75.3,15.5H58.9v5.4h15.6c2.4,0,4.1,0.4,5,1.3c0.9,0.8,1.3,2.4,1.3,4.7v3.4c0,2.3-0.4,3.8-1.3,4.7
				c-0.9,0.8-2.5,1.3-5,1.3H59c-2.4,0-4.1-0.4-5-1.3s-1.3-2.4-1.3-4.7v-0.7l5.1-1.1v3h17.7v-5.7H60c-2.4,0-4.1-0.4-4.9-1.3
				c-0.9-0.8-1.3-2.4-1.3-4.7V17c0-2.3,0.4-3.8,1.3-4.7c0.9-0.8,2.5-1.3,4.9-1.3h14.2c2.3,0,4,0.4,4.9,1.2c0.9,0.8,1.3,2.2,1.3,4.3
				v0.5l-5.1,1.2V15.5z"/>
			<path class="st2" d="M126.4,19.3h-12.8v13h12.8v-4.4l4.8,1v2.4c0,1.9-0.4,3.1-1.1,3.8c-0.7,0.7-2,1-4,1h-12.2c-2,0-3.3-0.3-4-1
				c-0.7-0.7-1-2-1-3.8V20.5c0-1.9,0.3-3.1,1-3.8c0.7-0.7,2-1,4-1h12.2c2,0,3.3,0.3,4,1c0.7,0.7,1.1,2,1.1,3.8v1.9l-4.8,0.8V19.3z"
				/>
			<path class="st2" d="M135.2,36.1l12.1-20.5h4.8l12.3,20.5h-5.6l-2.6-4.5h-13.5l-2.6,4.5H135.2z M144.9,27.9h9.4l-4.8-8.5
				L144.9,27.9z"/>
			<path class="st2" d="M169.6,36.1V15.6h18.4c1.7,0,2.9,0.3,3.7,0.9c0.8,0.6,1.1,1.6,1.1,3v4.8c0,1.4-0.4,2.4-1.1,3
				c-0.8,0.6-2,0.9-3.7,0.9h-2.8l9.7,7.8h-7.2l-8.6-7.8h-4.7v7.8H169.6z M185.9,19.2h-11.4v5.7h11.4c0.9,0,1.5-0.1,1.8-0.4
				c0.3-0.3,0.5-0.7,0.5-1.3v-2.4c0-0.6-0.2-1-0.5-1.3C187.4,19.3,186.8,19.2,185.9,19.2z"/>
			<path class="st2" d="M90.9,21.8v14.3h5V21.8c-0.8,0.3-1.6,0.5-2.5,0.5C92.5,22.3,91.7,22.1,90.9,21.8z"/>
		</g>
		<path class="st2" d="M35,13.9c-1.3-0.5-2.7-0.9-4-1.3h0c-1.1-0.3-2.3-0.5-3.4-0.7c-3.5-0.5-7.2-0.6-10.7-0.1
			c0.1-0.9,0.2-1.8,0.4-2.6c3.3-0.4,6.2-0.4,9.6,0.1c1.2,0.2,2.3,0.3,3.4,0.6c1.4,0.3,2.7,0.7,4.1,1.1c1.2,0.4,2.3,0.8,3.4,1.3
			l1,0.5l-0.1-1.1c-0.1-1.3-0.2-2.5-0.5-3.8l-0.1-0.4l-0.4-0.1c-1.2-0.5-2.4-0.9-3.7-1.2c-1.5-0.4-3-0.8-4.5-1
			c-1.3-0.2-2.6-0.4-3.8-0.5c-2.8-0.2-5.1-0.3-7.9,0c-1.3,0.1-2.5,0.3-3.8,0.5L13.7,5l-0.1,0.4c-0.4,1.2-0.7,2.4-1,3.7
			c-0.2,1.2-0.3,2.5-0.4,3.7c-1.2,0.3-2.3,0.7-3.5,1.1c-1.1,0.4-2.2,0.9-3.3,1.4L5,15.5L5,16c0.1,1.2,0.3,2.4,0.5,3.5
			c0.3,1.3,0.6,2.7,1.1,4c0.4,1.1,0.8,2.2,1.3,3.2c1.1,2.2,2.4,4.2,3.9,6.1c0.8,1,1.7,1.9,2.6,2.8l0.3,0.3l0.4-0.1
			c1.2-0.4,2.4-0.9,3.5-1.4c1.3-0.7,2.5-1.4,3.6-2.3c0.9-0.7,1.8-1.5,2.6-2.3c1.7-1.7,3.1-3.7,4.1-5.8c0.5-1,1-2.1,1.3-3.2l0.2-0.7
			l-0.7-0.2c-1.1-0.3-2.2-0.6-3.3-0.7c-2.9-0.4-5.9-0.5-8.8-0.1c-0.3-0.8-0.5-1.6-0.6-2.5c3.4-0.5,6.7-0.5,10.1,0.1
			c1.1,0.2,2.1,0.4,3.2,0.7c1.1,0.3,2.1,0.6,3.2,1c-0.2,1.1-0.5,2.1-0.8,3.2c-0.4,1.1-0.8,2.1-1.2,3c-1.1,2.2-2.5,4.3-4.1,6.2
			c-0.7,0.8-1.6,1.6-2.5,2.4c-1.1,0.9-2.2,1.8-3.4,2.5c-1,0.6-2.1,1.2-3.3,1.7l-1.2,0.5l1,0.7c1.1,0.8,2.3,1.5,3.5,2.1l0.3,0.2
			l0.3-0.2c1.2-0.6,2.4-1.3,3.4-2.1c1.3-0.9,2.5-1.9,3.6-3c0.9-0.9,1.8-1.8,2.6-2.8c1.5-1.9,2.9-3.9,3.9-6.1c0.5-1,0.9-2,1.3-3.1
			c0.5-1.3,0.8-2.7,1.1-4c0.2-1.1,0.4-2.3,0.5-3.5l0-0.5l-0.4-0.2C37.2,14.8,36.1,14.3,35,13.9z M15,24.4l0.5-0.1
			c1.1-0.3,2.2-0.5,3.3-0.6c1.7-0.2,3.3-0.2,5-0.1c-0.7,1.1-1.5,2.1-2.4,3c-0.7,0.7-1.6,1.4-2.4,2.1C18,29.3,17,29.8,16,30.3
			c-1.5-1.8-2.8-3.7-3.8-5.8c-0.4-0.9-0.9-1.9-1.2-3c-0.3-1-0.6-2.1-0.8-3.2c0.8-0.3,1.6-0.6,2.4-0.8c0.2,1.1,0.5,2.1,0.8,3.2
			c0.4,1.1,0.8,2.1,1.3,3.2L15,24.4z"/>
	</g>
</g>
<g id="圖層_2">
</g>
<g id="圖層_1">
</g>
</svg>
